<?xml version="1.0" encoding="UTF-8"?>
<svg id="Camada_2" data-name="Camada 2" xmlns="http://www.w3.org/2000/svg" viewBox="0 0 207.62 207.62">
  <defs>
    <style>
      .cls-1 {
        fill: #00ada9;
      }
    </style>
  </defs>
  <g id="Camada_1-2" data-name="Camada 1">
    <g>
      <g id="_Repetição_radial_" data-name="&amp;lt;Repetição radial&amp;gt;">
        <path class="cls-1" d="M100.36,108.52l2-3.35c-.73-2.4-2.15-3.04-4.25-1.92-3.02,1.6-3.3,4.71-.84,9.34.97,1.82,2.33,3.8,4.08,5.92,7.22.75,12.32,3.93,15.29,9.54s3.29,10.87,1.07,16c-2.22,5.13-6.63,9.44-13.22,12.93-2.73,1.45-5.72,2.67-8.97,3.67-2.05,3.6-2.81,5.89-2.29,6.87s3.02.28,7.51-2.09l10.73-5.68c15.92-8.43,26.9-6.94,32.96,4.49,3.27,6.17,3.43,12.33.49,18.47-2.84,6.17-9.34,11.95-19.51,17.34-17.32,9.18-27.97,10.01-31.94,2.51-2.15-4.07-.94-8.3,3.64-12.71l7.82-.5c.52,2.33,1.26,4.41,2.22,6.23,3.2,6.03,9.28,6.67,18.26,1.91,5.47-2.9,9.14-6.14,11.01-9.74,1.87-3.59,2-6.9.41-9.91s-3.59-4.57-5.97-4.65c-2.27-.05-6.07,1.33-11.4,4.16l-10.2,5.41c-5.68,3.01-10.25,4.22-13.71,3.62-3.46-.59-5.91-2.26-7.36-4.99s-1.84-5.58-1.05-8.34c.75-2.82,2.64-6.79,5.68-11.9-9.36,2-16.25-1.18-20.67-9.52-2.79-5.26-3.14-10.5-1.06-15.74,2.08-5.23,6.9-9.85,14.48-13.87,4.56-2.41,8.91-3.6,13.07-3.56-1.42-1.67-2.54-3.28-3.36-4.82-2.08-3.93-2.53-7.32-1.36-10.19,1.17-2.87,3.06-4.99,5.65-6.36s5.03-1.77,7.32-1.18c2.32.48,4.11,1.91,5.37,4.29s1.58,4.51.95,6.37c-.67,1.79-1.91,3.17-3.74,4.14s-3.47,1.25-5.14.97c-1.64-.39-2.96-1.44-3.96-3.15ZM88.48,140l3.01,5.68c2.49,4.7,4.57,7.68,6.23,8.96,1.73,1.24,3.41,1.43,5.02.57s2.45-2.33,2.29-4.31c-.12-2.09-1.54-5.7-4.25-10.82l-2.73-5.15c-2.9-5.47-5.14-8.86-6.74-10.17-1.63-1.38-3.29-1.63-4.97-.73s-2.36,2.42-2.23,4.69c.09,2.2,1.54,5.96,4.37,11.29Z"/>
      </g>
      <g id="_Repetição_radial_-2" data-name="&amp;lt;Repetição radial&amp;gt;">
        <path class="cls-1" d="M98.01,103.18l3.9.06c1.71-1.83,1.56-3.38-.46-4.64-2.89-1.81-5.73-.5-8.51,3.94-1.1,1.75-2.12,3.91-3.09,6.49,2.96,6.63,2.75,12.64-.62,18.02s-7.77,8.29-13.32,8.93c-5.55.64-11.49-1.02-17.81-4.98-2.62-1.64-5.18-3.62-7.66-5.93-4.14.03-6.5.51-7.09,1.45s1.27,2.76,5.57,5.46l10.29,6.45c15.26,9.57,19.46,19.83,12.59,30.79-3.71,5.92-8.96,9.14-15.75,9.66-6.76.63-15.02-2.11-24.77-8.22-16.61-10.41-22.66-19.21-18.15-26.41,2.44-3.9,6.72-4.97,12.82-3.2l4.34,6.52c-1.76,1.61-3.19,3.29-4.28,5.04-3.62,5.78-1.13,11.37,7.47,16.77,5.24,3.29,9.89,4.84,13.94,4.66,4.05-.18,6.98-1.71,8.79-4.61s2.16-5.39,1.04-7.49c-1.09-2-4.19-4.59-9.3-7.8l-9.78-6.13c-5.45-3.41-8.78-6.77-9.99-10.06-1.22-3.29-1-6.25.64-8.87s3.92-4.38,6.69-5.08c2.82-.76,7.2-1.1,13.15-1.03-6.41-7.11-7.1-14.66-2.09-22.66,3.16-5.04,7.53-7.97,13.1-8.79,5.57-.82,11.99,1.05,19.25,5.6,4.37,2.74,7.58,5.92,9.61,9.54.73-2.07,1.57-3.84,2.49-5.32,2.36-3.77,5.08-5.86,8.15-6.27,3.07-.42,5.85.16,8.34,1.71,2.49,1.56,4.05,3.48,4.69,5.75.75,2.25.4,4.51-1.03,6.8s-3.11,3.62-5.04,4.01c-1.88.32-3.7-.07-5.45-1.17s-2.82-2.38-3.41-3.97c-.49-1.62-.24-3.28.75-5.01ZM64.8,108.63l-3.41,5.45c-2.82,4.5-4.37,7.8-4.64,9.87-.2,2.12.47,3.66,2.01,4.63s3.24.95,4.88-.17c1.75-1.15,4.17-4.18,7.24-9.09l3.1-4.94c3.29-5.24,5.1-8.88,5.44-10.92.38-2.1-.23-3.66-1.85-4.67s-3.27-.83-5.17.41c-1.86,1.18-4.39,4.32-7.6,9.43Z"/>
      </g>
      <g id="_Repetição_radial_-3" data-name="&amp;lt;Repetição radial&amp;gt;">
        <path class="cls-1" d="M101.46,98.47l1.9,3.4c2.44.57,3.7-.34,3.79-2.72.12-3.41-2.43-5.21-7.66-5.4-2.06-.08-4.45.12-7.17.57-4.26,5.88-9.57,8.7-15.91,8.47s-11.06-2.59-14.39-7.07c-3.33-4.49-4.86-10.46-4.59-17.91.11-3.09.55-6.29,1.3-9.6-2.09-3.57-3.7-5.38-4.81-5.42s-1.76,2.48-1.94,7.55l-.44,12.13c-.65,18-7.45,26.77-20.37,26.3-6.98-.25-12.39-3.19-16.24-8.81-3.93-5.54-5.68-14.06-5.26-25.56.71-19.59,5.31-29.23,13.8-28.92,4.6.17,7.66,3.34,9.18,9.51l-3.47,7.02c-2.28-.72-4.45-1.11-6.51-1.19-6.82-.25-10.41,4.7-10.78,14.85-.22,6.19.75,10.99,2.93,14.4,2.18,3.41,4.97,5.18,8.38,5.31s5.75-.82,7.01-2.84c1.18-1.94,1.88-5.93,2.1-11.95l.42-11.54c.23-6.42,1.47-10.98,3.71-13.68,2.24-2.7,4.91-3.99,8-3.88s5.75,1.2,7.74,3.26c2.07,2.06,4.56,5.68,7.47,10.87,2.95-9.1,9.15-13.48,18.58-13.14,5.95.22,10.67,2.53,14.16,6.95,3.49,4.42,5.08,10.9,4.77,19.47-.19,5.15-1.34,9.52-3.45,13.1,2.16-.4,4.11-.57,5.85-.5,4.44.16,7.61,1.47,9.51,3.92,1.9,2.45,2.79,5.14,2.68,8.08s-.98,5.24-2.63,6.93c-1.57,1.77-3.71,2.6-6.4,2.51s-4.69-.89-5.99-2.36c-1.22-1.47-1.79-3.24-1.71-5.3s.65-3.63,1.73-4.94c1.16-1.23,2.73-1.85,4.71-1.85ZM80.13,72.44l-6.42-.23c-5.31-.19-8.94.11-10.87.91-1.94.88-2.94,2.24-3.01,4.06s.79,3.28,2.59,4.14c1.87.94,5.7,1.52,11.49,1.73l5.83.21c6.19.22,10.24-.02,12.18-.75,2.01-.72,3.05-2.03,3.12-3.94s-.91-3.25-2.94-4.28c-1.95-1.02-5.94-1.65-11.96-1.86Z"/>
      </g>
      <g id="_Repetição_radial_-4" data-name="&amp;lt;Repetição radial&amp;gt;">
        <path class="cls-1" d="M107.26,99.1l-2,3.35c.73,2.4,2.15,3.04,4.25,1.92,3.02-1.6,3.3-4.71.84-9.34-.97-1.82-2.33-3.8-4.08-5.92-7.22-.75-12.32-3.93-15.29-9.54s-3.29-10.87-1.07-16c2.22-5.13,6.63-9.44,13.22-12.93,2.73-1.45,5.72-2.67,8.97-3.67,2.05-3.6,2.81-5.89,2.29-6.87s-3.02-.28-7.51,2.09l-10.73,5.68c-15.92,8.43-26.9,6.94-32.96-4.49-3.27-6.17-3.43-12.33-.49-18.47,2.84-6.17,9.34-11.95,19.51-17.34,17.32-9.18,27.97-10.01,31.94-2.51,2.15,4.07.94,8.3-3.64,12.71l-7.82.5c-.52-2.33-1.26-4.41-2.22-6.23-3.2-6.03-9.28-6.67-18.26-1.91-5.47,2.9-9.14,6.14-11.01,9.74-1.87,3.59-2,6.9-.41,9.91s3.59,4.57,5.97,4.65c2.27.05,6.07-1.33,11.4-4.16l10.2-5.41c5.68-3.01,10.25-4.22,13.71-3.62,3.46.59,5.91,2.26,7.36,4.99s1.84,5.58,1.05,8.34c-.75,2.82-2.64,6.79-5.68,11.9,9.36-2,16.25,1.18,20.67,9.52,2.79,5.26,3.14,10.5,1.06,15.74-2.08,5.23-6.9,9.85-14.48,13.87-4.56,2.41-8.91,3.6-13.07,3.56,1.42,1.67,2.54,3.28,3.36,4.82,2.08,3.93,2.53,7.32,1.36,10.19-1.17,2.87-3.06,4.99-5.65,6.36s-5.03,1.77-7.32,1.18c-2.32-.48-4.11-1.91-5.37-4.29s-1.58-4.51-.95-6.37c.67-1.79,1.91-3.17,3.74-4.14s3.47-1.25,5.14-.97c1.64.39,2.96,1.44,3.96,3.15ZM119.14,67.62l-3.01-5.68c-2.49-4.7-4.57-7.68-6.23-8.96-1.73-1.24-3.41-1.43-5.02-.57s-2.45,2.33-2.29,4.31c.12,2.09,1.54,5.7,4.25,10.82l2.73,5.15c2.9,5.47,5.14,8.86,6.74,10.17,1.63,1.38,3.29,1.63,4.97.73s2.36-2.42,2.23-4.69c-.09-2.2-1.54-5.96-4.37-11.29Z"/>
      </g>
      <g id="_Repetição_radial_-5" data-name="&amp;lt;Repetição radial&amp;gt;">
        <path class="cls-1" d="M109.61,104.44l-3.9-.06c-1.71,1.83-1.56,3.38.46,4.64,2.89,1.81,5.73.5,8.51-3.94,1.1-1.75,2.12-3.91,3.09-6.49-2.96-6.63-2.75-12.64.62-18.02s7.77-8.29,13.32-8.93c5.55-.64,11.49,1.02,17.81,4.98,2.62,1.64,5.18,3.62,7.66,5.93,4.14-.03,6.5-.51,7.09-1.45s-1.27-2.76-5.57-5.46l-10.29-6.45c-15.26-9.57-19.46-19.83-12.59-30.79,3.71-5.92,8.96-9.14,15.75-9.66,6.76-.63,15.02,2.11,24.77,8.22,16.61,10.41,22.66,19.21,18.15,26.41-2.44,3.9-6.72,4.97-12.82,3.2l-4.34-6.52c1.76-1.61,3.19-3.29,4.28-5.04,3.62-5.78,1.13-11.37-7.47-16.77-5.24-3.29-9.89-4.84-13.94-4.66-4.05.18-6.98,1.71-8.79,4.61s-2.16,5.39-1.04,7.49c1.09,2,4.19,4.59,9.3,7.8l9.78,6.13c5.45,3.41,8.78,6.77,9.99,10.06,1.22,3.29,1,6.25-.64,8.87s-3.92,4.38-6.69,5.08c-2.82.76-7.2,1.1-13.15,1.03,6.41,7.11,7.1,14.66,2.09,22.66-3.16,5.04-7.53,7.97-13.1,8.79-5.57.82-11.99-1.05-19.25-5.6-4.37-2.74-7.58-5.92-9.61-9.54-.73,2.07-1.57,3.84-2.49,5.32-2.36,3.77-5.08,5.86-8.15,6.27-3.07.42-5.85-.16-8.34-1.71-2.49-1.56-4.05-3.48-4.69-5.75-.75-2.25-.4-4.51,1.03-6.8s3.11-3.62,5.04-4.01c1.88-.32,3.7.07,5.45,1.17s2.82,2.38,3.41,3.97c.49,1.62.24,3.28-.75,5.01ZM142.82,98.99l3.41-5.45c2.82-4.5,4.37-7.8,4.64-9.87.2-2.12-.47-3.66-2.01-4.63s-3.24-.95-4.88.17c-1.75,1.15-4.17,4.18-7.24,9.09l-3.1,4.94c-3.29,5.24-5.1,8.88-5.44,10.92-.38,2.1.23,3.66,1.85,4.67s3.27.83,5.17-.41c1.86-1.18,4.39-4.32,7.6-9.43Z"/>
      </g>
      <g id="_Repetição_radial_-6" data-name="&amp;lt;Repetição radial&amp;gt;">
        <path class="cls-1" d="M106.16,109.15l-1.9-3.4c-2.44-.57-3.7.34-3.79,2.72-.12,3.41,2.43,5.21,7.66,5.4,2.06.08,4.45-.12,7.17-.57,4.26-5.88,9.57-8.7,15.91-8.47s11.06,2.59,14.39,7.07c3.33,4.49,4.86,10.46,4.59,17.91-.11,3.09-.55,6.29-1.3,9.6,2.09,3.57,3.7,5.38,4.81,5.42s1.76-2.48,1.94-7.55l.44-12.13c.65-18,7.45-26.77,20.37-26.3,6.98.25,12.39,3.19,16.24,8.81,3.93,5.54,5.68,14.06,5.26,25.56-.71,19.59-5.31,29.23-13.8,28.92-4.6-.17-7.66-3.34-9.18-9.51l3.47-7.02c2.28.72,4.45,1.11,6.51,1.19,6.82.25,10.41-4.7,10.78-14.85.22-6.19-.75-10.99-2.93-14.4-2.18-3.41-4.97-5.18-8.38-5.31s-5.75.82-7.01,2.84c-1.18,1.94-1.88,5.93-2.1,11.95l-.42,11.54c-.23,6.42-1.47,10.98-3.71,13.68-2.24,2.7-4.91,3.99-8,3.88s-5.75-1.2-7.74-3.26c-2.07-2.06-4.56-5.68-7.47-10.87-2.95,9.1-9.15,13.48-18.58,13.14-5.95-.22-10.67-2.53-14.16-6.95-3.49-4.42-5.08-10.9-4.77-19.47.19-5.15,1.34-9.52,3.45-13.1-2.16.4-4.11.57-5.85.5-4.44-.16-7.61-1.47-9.51-3.92-1.9-2.45-2.79-5.14-2.68-8.08s.98-5.24,2.63-6.93c1.57-1.77,3.71-2.6,6.4-2.51s4.69.89,5.99,2.36c1.22,1.47,1.79,3.24,1.71,5.3s-.65,3.63-1.73,4.94c-1.16,1.23-2.73,1.85-4.71,1.85ZM127.49,135.18l6.42.23c5.31.19,8.94-.11,10.87-.91,1.94-.88,2.94-2.24,3.01-4.06s-.79-3.28-2.59-4.14c-1.87-.94-5.7-1.52-11.49-1.73l-5.83-.21c-6.19-.22-10.24.02-12.18.75-2.01.72-3.05,2.03-3.12,3.94s.91,3.25,2.94,4.28c1.95,1.02,5.94,1.65,11.96,1.86Z"/>
      </g>
    </g>
  </g>
</svg>